<?xml version="1.0" standalone="no"?>
<!DOCTYPE svg PUBLIC "-//W3C//DTD SVG 20010904//EN"
 "http://www.w3.org/TR/2001/REC-SVG-20010904/DTD/svg10.dtd">
<svg version="1.0" xmlns="http://www.w3.org/2000/svg"
 width="1000.000000pt" height="1000.000000pt" viewBox="0 0 1000.000000 1000.000000"
 preserveAspectRatio="xMidYMid meet">
<metadata>
Created by potrace 1.11, written by Peter Selinger 2001-2013
</metadata>
<g transform="translate(0.000000,1000.000000) scale(0.100000,-0.100000)"
fill="#000000" stroke="none">
<path d="M4809 8626 c-2 -2 -33 -7 -69 -10 -257 -27 -521 -94 -760 -195 l-75
-31 -707 0 -708 0 0 -833 c0 -688 -2 -842 -14 -887 -12 -47 -30 -137 -51 -255
-20 -118 -27 -451 -12 -611 9 -100 32 -234 57 -338 19 -76 20 -121 20 -1236 0
-1089 1 -1158 18 -1172 14 -13 676 -462 748 -508 13 -8 94 -63 181 -122 358
-243 553 -374 833 -563 162 -109 304 -206 316 -217 11 -10 23 -18 27 -18 3 0
34 -19 69 -43 35 -24 121 -83 192 -131 l128 -88 82 55 c44 30 182 123 306 207
250 169 873 591 1133 767 437 295 518 350 737 498 129 87 240 163 245 170 7 8
10 405 10 1161 -1 1071 1 1154 17 1224 10 41 21 90 24 109 3 18 8 43 10 55 52
260 51 630 -2 901 -2 11 -7 34 -10 50 -3 17 -13 62 -22 100 -16 64 -18 143
-17 898 l0 827 -707 0 -707 0 -108 44 c-99 40 -242 90 -289 101 -10 2 -37 9
-59 15 -78 20 -220 46 -350 65 -45 7 -480 16 -486 11z m551 -365 c168 -28 175
-30 300 -68 678 -205 1207 -693 1463 -1349 31 -78 81 -240 93 -299 40 -199 52
-319 52 -502 -1 -173 -6 -228 -34 -383 -82 -451 -290 -847 -619 -1175 -434
-436 -995 -668 -1610 -668 -600 -1 -1172 235 -1600 660 -300 296 -535 721
-610 1104 -102 515 -46 984 170 1434 131 272 352 553 590 752 335 280 796 473
1215 509 41 4 77 8 80 11 13 12 406 -8 510 -26z m-2011 -211 c21 0 19 -3 -19
-31 -52 -38 -277 -261 -341 -338 -24 -29 -70 -89 -101 -133 l-58 -80 0 290 0
291 63 3 c49 2 274 2 456 -2z m3821 0 c3 0 6 -130 6 -290 0 -159 -1 -288 -2
-287 -1 1 -30 40 -64 87 -111 150 -252 302 -397 427 l-73 62 78 3 c58 2 419 1
452 -2z m-4266 -3513 c86 -118 164 -206 291 -328 l80 -78 0 -590 c0 -325 -3
-591 -7 -591 -4 0 -104 65 -220 144 l-213 143 -3 699 c-1 389 2 694 6 689 5
-6 35 -45 66 -88z m4271 -606 c0 -379 -2 -691 -5 -694 -3 -3 -103 -71 -222
-151 l-218 -146 0 594 0 595 114 113 c118 118 188 198 270 311 28 37 53 67 56
67 3 0 6 -310 5 -689z m-3360 -163 c190 -97 490 -204 655 -233 148 -26 207
-34 275 -40 44 -4 81 -8 83 -10 1 -1 1 -360 0 -798 l-3 -796 -505 344 c-278
190 -515 350 -527 357 -12 7 -58 38 -102 68 l-81 55 0 583 0 583 63 -36 c34
-20 98 -54 142 -77z m2580 -475 l-1 -578 -159 -108 c-88 -60 -360 -245 -605
-411 -245 -166 -447 -299 -450 -295 -5 7 -6 1561 -1 1580 0 3 49 11 109 18
123 13 167 19 202 27 14 3 36 8 49 10 226 43 536 161 751 286 52 31 97 54 100
53 3 -2 5 -263 5 -582z"/>
<path d="M4150 7253 c-42 -7 -127 -41 -172 -69 -149 -94 -287 -323 -373 -618
-25 -89 -70 -291 -79 -363 -24 -180 -27 -218 -27 -353 -1 -206 37 -355 109
-428 94 -96 234 -104 392 -19 125 66 231 144 375 275 140 128 280 179 515 189
100 4 157 1 220 -10 194 -36 263 -68 390 -184 354 -324 606 -408 758 -252 52
53 92 156 107 274 10 83 5 317 -9 425 -52 395 -171 738 -320 926 -115 146
-224 205 -387 209 -102 3 -157 -6 -349 -55 -63 -16 -126 -31 -140 -34 -14 -3
-36 -8 -50 -11 -165 -37 -217 -32 -540 45 -91 22 -181 42 -200 45 -44 8 -187
13 -220 8z m209 -376 c45 -30 85 -86 96 -135 5 -25 12 -32 30 -32 12 0 44 -15
71 -32 91 -62 122 -175 74 -272 -26 -55 -82 -104 -128 -112 -29 -6 -37 -14
-61 -68 -32 -69 -59 -98 -116 -122 -43 -18 -117 -20 -158 -5 -38 15 -96 70
-118 113 -11 21 -17 38 -14 38 3 0 1 9 -5 20 -6 11 -21 20 -34 20 -26 0 -89
39 -117 73 -54 65 -62 169 -18 246 22 40 93 92 136 101 19 4 30 17 44 54 37
98 113 149 215 143 47 -2 72 -9 103 -30z m1298 -13 c62 -47 65 -132 6 -190
-40 -41 -85 -48 -143 -24 -63 26 -90 124 -50 184 42 65 124 78 187 30z m-271
-259 c77 -50 78 -170 1 -219 -82 -53 -197 11 -197 109 0 98 116 163 196 110z
m513 2 c33 -16 63 -69 63 -111 0 -74 -55 -130 -128 -128 -98 1 -156 101 -110
190 33 65 103 84 175 49z m-252 -265 c52 -28 74 -124 40 -175 -72 -111 -237
-63 -237 68 0 102 102 157 197 107z"/>
<path d="M4196 6728 c-21 -19 -26 -34 -30 -82 -4 -75 -26 -96 -96 -96 -90 0
-132 -69 -75 -125 19 -20 34 -25 73 -25 72 0 92 -20 101 -99 9 -75 33 -103 84
-97 44 5 67 38 67 98 0 68 21 89 97 94 72 5 106 35 98 87 -8 46 -38 67 -97 67
-69 0 -98 30 -98 100 0 41 -5 56 -25 75 -30 31 -66 32 -99 3z"/>
</g>
</svg>
